<svg xmlns="http://www.w3.org/2000/svg" xmlns:xlink="http://www.w3.org/1999/xlink" width="500" zoomAndPan="magnify" viewBox="0 0 375 374.999991" height="500" preserveAspectRatio="xMidYMid meet" version="1.0"><defs><g/><clipPath id="6b1a5bac61"><path d="M 231 160 L 241.832031 160 L 241.832031 171 L 231 171 Z M 231 160 " clip-rule="nonzero"/></clipPath><clipPath id="09de459ab8"><path d="M 185 141.601562 L 211 141.601562 L 211 154 L 185 154 Z M 185 141.601562 " clip-rule="nonzero"/></clipPath><clipPath id="846af93e3a"><path d="M 179 154 L 217 154 L 217 194.617188 L 179 194.617188 Z M 179 154 " clip-rule="nonzero"/></clipPath><clipPath id="7e3c4352d7"><path d="M 138 158 L 175 158 L 175 194.527344 L 138 194.527344 Z M 138 158 " clip-rule="nonzero"/></clipPath><clipPath id="7bb35292fc"><path d="M 158 112.539062 L 176 112.539062 L 176 137 L 158 137 Z M 158 112.539062 " clip-rule="nonzero"/></clipPath><clipPath id="b7a6312f83"><path d="M 147 189 L 205 189 L 205 194.527344 L 147 194.527344 Z M 147 189 " clip-rule="nonzero"/></clipPath><clipPath id="45381d532b"><path d="M 129.824219 192.796875 L 268.570312 192.796875 L 268.570312 196.5625 L 129.824219 196.5625 Z M 129.824219 192.796875 " clip-rule="nonzero"/></clipPath><clipPath id="6bbe6efe4a"><path d="M 199.195312 192.796875 L 268.5625 196.5625 L 129.824219 196.5625 Z M 199.195312 192.796875 " clip-rule="nonzero"/></clipPath><clipPath id="9a73853132"><path d="M 106.4375 192.796875 L 190.835938 192.796875 L 190.835938 196.328125 L 106.4375 196.328125 Z M 106.4375 192.796875 " clip-rule="nonzero"/></clipPath><clipPath id="6e8a1fd5f4"><path d="M 148.632812 192.796875 L 190.828125 196.328125 L 106.4375 196.328125 Z M 148.632812 192.796875 " clip-rule="nonzero"/></clipPath></defs><rect x="-37.5" width="450" fill="#ffffff" y="-37.499999" height="449.999989" fill-opacity="1"/><rect x="-37.5" width="450" fill="#ffffff" y="-37.499999" height="449.999989" fill-opacity="1"/><path fill="#000000" d="M 190.992188 180.863281 L 193.335938 178.53125 L 193.613281 175.4375 C 193.632812 175.203125 193.835938 175.046875 194.066406 175.054688 C 194.300781 175.078125 194.46875 175.277344 194.449219 175.511719 L 194.269531 177.601562 L 196.066406 175.792969 L 196.339844 172.710938 C 196.359375 172.480469 196.5625 172.300781 196.804688 172.320312 C 197.035156 172.34375 197.207031 172.554688 197.183594 172.785156 L 196.996094 174.867188 L 198.800781 173.070312 L 199.078125 169.976562 C 199.097656 169.746094 199.296875 169.578125 199.53125 169.597656 C 199.765625 169.617188 199.945312 169.820312 199.921875 170.050781 L 199.730469 172.132812 L 201.539062 170.335938 L 201.8125 167.242188 C 201.835938 167.011719 202.035156 166.851562 202.269531 166.863281 C 202.5 166.882812 202.671875 167.085938 202.648438 167.316406 L 202.46875 169.40625 L 204.574219 167.296875 C 204.742188 167.125 205.007812 167.125 205.175781 167.296875 C 205.34375 167.464844 205.34375 167.730469 205.175781 167.898438 L 203.0625 170 L 205.152344 169.820312 C 205.398438 169.796875 205.585938 169.96875 205.609375 170.199219 C 205.628906 170.429688 205.460938 170.632812 205.226562 170.652344 L 202.132812 170.929688 L 200.335938 172.734375 L 202.417969 172.542969 C 202.660156 172.53125 202.851562 172.703125 202.871094 172.933594 C 202.890625 173.164062 202.722656 173.367188 202.492188 173.386719 L 199.394531 173.664062 L 197.597656 175.46875 L 199.679688 175.277344 C 199.921875 175.265625 200.125 175.425781 200.144531 175.65625 C 200.164062 175.890625 199.984375 176.101562 199.753906 176.121094 L 196.667969 176.398438 L 194.859375 178.191406 L 196.953125 178.011719 C 197.183594 177.992188 197.386719 178.160156 197.40625 178.390625 C 197.429688 178.625 197.257812 178.835938 197.027344 178.847656 L 193.929688 179.132812 L 191.59375 181.464844 C 193.6875 181.484375 198.917969 181.136719 202.648438 177.398438 C 206.769531 173.28125 207.871094 166.304688 208.101562 164.371094 C 206.167969 164.605469 199.183594 165.703125 195.058594 169.820312 C 191.320312 173.546875 190.96875 178.773438 190.992188 180.863281 Z M 190.992188 180.863281 " fill-opacity="1" fill-rule="nonzero"/><g clip-path="url(#6b1a5bac61)"><path fill="#000000" d="M 232.644531 160.496094 L 231.894531 166.714844 L 233.671875 168.488281 L 235.625 170.441406 L 241.429688 169.28125 Z M 232.644531 160.496094 " fill-opacity="1" fill-rule="nonzero"/></g><g clip-path="url(#09de459ab8)"><path fill="#000000" d="M 189.839844 145.417969 C 191.933594 143.644531 194.828125 142.71875 197.988281 142.71875 C 203.578125 142.886719 209.59375 146.421875 209.878906 153.769531 L 210.925781 153.769531 C 210.671875 145.980469 204.308594 141.789062 198.019531 141.683594 C 194.449219 141.566406 191.023438 142.824219 188.632812 145.136719 C 186.394531 147.300781 185.179688 150.285156 185.09375 153.769531 L 186.128906 153.769531 C 186.265625 150.265625 187.535156 147.382812 189.839844 145.417969 Z M 189.839844 145.417969 " fill-opacity="1" fill-rule="nonzero"/></g><path fill="#000000" d="M 217.476562 179.164062 C 217.667969 182.902344 217.59375 186.839844 217.140625 190.859375 L 234.894531 170.917969 L 231.417969 167.445312 Z M 217.476562 179.164062 " fill-opacity="1" fill-rule="nonzero"/><g clip-path="url(#846af93e3a)"><path fill="#000000" d="M 184.722656 154.617188 C 183.128906 157.488281 177.472656 174.539062 179.894531 192.171875 C 180.050781 193.320312 186.097656 194.546875 197.003906 194.546875 L 197.015625 194.546875 C 209.105469 194.546875 215.988281 193.140625 216.125 192.171875 C 218.546875 174.539062 212.890625 157.488281 211.296875 154.617188 Z M 203.25 178 C 199.414062 181.824219 194.269531 182.320312 191.878906 182.320312 C 191.359375 182.320312 190.992188 182.296875 190.78125 182.277344 L 187.734375 185.308594 C 187.652344 185.390625 187.546875 185.433594 187.441406 185.433594 C 187.335938 185.433594 187.21875 185.390625 187.144531 185.308594 C 186.976562 185.148438 186.976562 184.875 187.144531 184.714844 L 190.175781 181.6875 C 190.082031 180.449219 189.808594 173.863281 194.457031 169.21875 C 199.476562 164.214844 208.175781 163.503906 208.546875 163.472656 C 208.671875 163.464844 208.789062 163.515625 208.875 163.601562 C 208.960938 163.683594 209.011719 163.8125 209 163.929688 C 208.96875 164.296875 208.261719 172.988281 203.25 178 Z M 203.25 178 " fill-opacity="1" fill-rule="nonzero"/></g><g clip-path="url(#7e3c4352d7)"><path fill="#000000" d="M 166.214844 169.542969 C 168.097656 167.183594 169.941406 164.871094 171.820312 162.507812 C 171.285156 162.082031 170.746094 161.65625 170.207031 161.226562 C 169.09375 160.339844 167.972656 159.453125 166.839844 158.550781 C 166.234375 159.3125 165.636719 160.0625 165.042969 160.8125 C 163.804688 162.375 162.578125 163.917969 161.339844 165.472656 C 158.914062 163.539062 156.503906 161.625 154.09375 159.707031 C 153.46875 159.210938 152.847656 158.714844 152.222656 158.21875 C 151.863281 158.667969 151.53125 159.066406 151.214844 159.472656 C 148.511719 162.902344 145.859375 166.367188 143.101562 169.75 C 139.875 173.703125 138.125 178.117188 138.332031 183.277344 C 138.476562 186.859375 139.378906 190.261719 140.488281 193.632812 C 140.546875 193.796875 140.835938 193.960938 141.035156 193.992188 C 141.769531 194.128906 142.511719 194.203125 143.253906 194.304688 C 144.765625 194.519531 146.273438 194.652344 147.78125 194.6875 C 148.03125 194.695312 148.277344 194.695312 148.523438 194.695312 C 149.082031 194.695312 149.636719 194.679688 150.191406 194.652344 C 151.074219 194.605469 151.960938 194.519531 152.84375 194.386719 C 153.492188 194.292969 154.132812 194.175781 154.777344 194.03125 C 157.101562 193.511719 159.28125 192.710938 161.230469 191.503906 C 161.976562 191.039062 162.6875 190.515625 163.359375 189.921875 C 163.875 189.472656 164.371094 188.980469 164.839844 188.445312 C 165.179688 188.054688 165.515625 187.664062 165.847656 187.261719 C 166.9375 185.960938 167.988281 184.617188 169.0625 183.296875 C 169.582031 182.65625 170.097656 182.019531 170.617188 181.382812 C 171.976562 179.707031 173.34375 178.023438 174.734375 176.3125 C 171.878906 174.039062 169.054688 171.796875 166.214844 169.542969 Z M 157.890625 169.933594 L 157.890625 174.542969 C 159.65625 174.308594 161.246094 173.84375 162.773438 173.179688 C 162.523438 173.777344 161.789062 174.625 160.796875 175.539062 C 158.289062 177.867188 154.167969 180.648438 152.324219 180.949219 C 153.527344 176.96875 155.257812 173.320312 157.890625 169.933594 Z M 157.890625 169.933594 " fill-opacity="1" fill-rule="evenodd"/></g><path fill="#000000" d="M 204.890625 124.964844 C 204.550781 124.695312 204.207031 124.433594 203.867188 124.164062 C 200.835938 121.792969 197.789062 119.433594 194.738281 117.085938 C 193.640625 116.238281 192.382812 116.390625 191.464844 117.441406 C 190.800781 118.203125 190.144531 118.984375 189.535156 119.789062 C 188.910156 120.613281 188.425781 121.46875 188.082031 122.347656 C 187.296875 124.351562 187.25 126.464844 187.949219 128.539062 C 188.199219 129.277344 188.539062 130.003906 188.976562 130.722656 C 188.992188 130.75 189.007812 130.777344 189.019531 130.800781 C 189.179688 131.101562 189.144531 131.304688 188.921875 131.574219 C 188.015625 132.683594 187.132812 133.816406 186.234375 134.9375 C 185.402344 135.976562 184.566406 137.019531 183.734375 138.0625 C 181.574219 140.761719 179.414062 143.464844 177.253906 146.164062 C 176.539062 147.058594 175.824219 147.949219 175.113281 148.839844 C 174.339844 149.804688 173.570312 150.769531 172.800781 151.734375 C 172.640625 151.925781 172.488281 152.121094 172.328125 152.316406 C 171.65625 153.15625 170.984375 154 170.3125 154.835938 C 169.914062 155.335938 169.519531 155.84375 169.085938 156.394531 C 170.292969 157.34375 171.460938 158.257812 172.617188 159.167969 C 172.933594 159.410156 173.242188 159.65625 173.554688 159.902344 C 173.625 159.855469 173.660156 159.839844 173.683594 159.808594 C 174.023438 159.382812 174.367188 158.953125 174.710938 158.523438 C 177.726562 154.734375 180.746094 150.941406 183.761719 147.152344 C 184.570312 146.136719 185.378906 145.121094 186.1875 144.109375 C 188.628906 141.039062 191.070312 137.96875 193.5 134.886719 C 193.5625 134.804688 193.625 134.738281 193.6875 134.683594 C 193.957031 134.433594 194.238281 134.394531 194.65625 134.453125 C 196.902344 134.773438 198.980469 134.460938 200.773438 133.335938 C 201.339844 132.980469 201.878906 132.542969 202.382812 132.019531 C 203.082031 131.300781 203.710938 130.515625 204.328125 129.71875 C 204.652344 129.300781 204.96875 128.886719 205.292969 128.472656 C 205.617188 128.054688 205.820312 127.628906 205.902344 127.214844 C 206.054688 126.402344 205.71875 125.613281 204.890625 124.964844 Z M 201.011719 128.316406 C 200.9375 128.417969 200.859375 128.519531 200.78125 128.617188 C 200.003906 129.605469 199.105469 130.4375 197.765625 130.78125 C 196.613281 131.082031 195.433594 131.007812 194.390625 130.613281 C 194.296875 130.578125 194.203125 130.535156 194.113281 130.496094 C 194.019531 130.457031 193.929688 130.414062 193.835938 130.367188 C 193.75 130.320312 193.660156 130.273438 193.578125 130.21875 C 193.492188 130.167969 193.40625 130.117188 193.324219 130.058594 C 193.113281 129.917969 192.917969 129.761719 192.734375 129.59375 C 192.507812 129.386719 192.304688 129.160156 192.121094 128.914062 C 191.808594 128.492188 191.5625 128.03125 191.386719 127.550781 C 191.3125 127.34375 191.25 127.132812 191.195312 126.917969 C 191.164062 126.773438 191.132812 126.632812 191.113281 126.488281 C 190.914062 125.242188 191.140625 123.945312 191.8125 122.867188 C 192.28125 122.109375 192.863281 121.421875 193.398438 120.695312 C 196.160156 122.835938 198.847656 124.921875 201.570312 127.035156 C 201.644531 127.09375 201.722656 127.152344 201.796875 127.210938 C 201.539062 127.585938 201.28125 127.957031 201.011719 128.316406 Z M 201.011719 128.316406 " fill-opacity="1" fill-rule="evenodd"/><path fill="#579728" d="M 167.605469 148.667969 C 167.53125 149.539062 167.3125 150.398438 167.160156 151.261719 C 167.148438 151.308594 167.097656 151.347656 167.03125 151.4375 C 164.585938 146.058594 160.671875 142.078125 155.59375 139.1875 C 158.957031 143.675781 162.707031 147.914062 164.574219 153.441406 C 162.078125 153.542969 159.78125 153.210938 157.621094 152.144531 C 153.222656 149.972656 150.984375 146.253906 150.105469 141.585938 C 149.621094 139.003906 149.707031 136.40625 150.007812 133.808594 C 150.023438 133.679688 150.074219 133.554688 150.113281 133.40625 C 154.421875 133.3125 158.597656 133.777344 162.1875 136.414062 C 166.308594 139.445312 168.019531 143.609375 167.605469 148.667969 Z M 167.605469 148.667969 " fill-opacity="1" fill-rule="evenodd"/><g clip-path="url(#7bb35292fc)"><path fill="#579728" d="M 175.382812 126.957031 C 173.980469 127.3125 172.644531 127.765625 171.558594 128.664062 C 170.496094 129.542969 169.542969 130.558594 168.699219 131.363281 C 168.199219 128.355469 167.65625 125.109375 167.113281 121.863281 C 166.601562 122.441406 166.058594 126.46875 166.058594 129.015625 C 166.058594 131.445312 166.140625 133.875 166.1875 136.363281 C 165.742188 135.960938 165.316406 135.574219 164.894531 135.191406 C 163.582031 134.003906 162.074219 133.171875 160.414062 132.578125 C 160.1875 132.496094 159.957031 132.246094 159.855469 132.019531 C 158.902344 129.855469 158.714844 127.585938 159 125.269531 C 159.445312 121.722656 161.1875 118.78125 163.441406 116.113281 C 164.472656 114.890625 165.621094 113.765625 166.761719 112.546875 C 171.285156 116.507812 174.777344 120.851562 175.382812 126.957031 Z M 175.382812 126.957031 " fill-opacity="1" fill-rule="evenodd"/></g><path fill="#8fbd4f" d="M 180.871094 137.144531 C 179.292969 141.722656 175.410156 143.644531 171.855469 143.769531 C 171.742188 143.769531 171.628906 143.757812 171.375 143.746094 C 172.796875 139.917969 175.050781 136.664062 177.234375 133.214844 C 173.617188 135.339844 171.21875 138.386719 169.347656 142.101562 C 169.226562 141.546875 169.117188 141.105469 169.027344 140.660156 C 167.863281 134.945312 171.535156 129.941406 177.242188 128.917969 C 178.382812 128.710938 179.558594 128.695312 180.722656 128.632812 C 180.878906 128.621094 181.171875 128.804688 181.199219 128.9375 C 181.726562 131.695312 181.800781 134.4375 180.871094 137.144531 Z M 180.871094 137.144531 " fill-opacity="1" fill-rule="evenodd"/><g clip-path="url(#b7a6312f83)"><path fill="#000000" d="M 204.417969 194.691406 L 147.78125 194.691406 L 147.78125 189.847656 L 162.742188 189.847656 L 163.363281 189.921875 C 162.691406 190.511719 161.980469 191.035156 161.230469 191.5 L 167.429688 190.394531 L 176.324219 191.429688 Z M 204.417969 194.691406 " fill-opacity="1" fill-rule="evenodd"/></g><g clip-path="url(#45381d532b)"><g clip-path="url(#6bbe6efe4a)"><path fill="#000000" d="M 129.824219 192.796875 L 268.570312 192.796875 L 268.570312 196.5625 L 129.824219 196.5625 Z M 129.824219 192.796875 " fill-opacity="1" fill-rule="nonzero"/></g></g><g clip-path="url(#9a73853132)"><g clip-path="url(#6e8a1fd5f4)"><path fill="#000000" d="M 106.4375 192.796875 L 190.835938 192.796875 L 190.835938 196.328125 L 106.4375 196.328125 Z M 106.4375 192.796875 " fill-opacity="1" fill-rule="nonzero"/></g></g><g fill="#579728" fill-opacity="1"><g transform="translate(41.022798, 231.793521)"><g><path d="M 19.90625 -18.09375 C 19.425781 -18.976562 18.738281 -19.648438 17.84375 -20.109375 C 16.957031 -20.578125 15.910156 -20.8125 14.703125 -20.8125 C 12.617188 -20.8125 10.945312 -20.125 9.6875 -18.75 C 8.425781 -17.382812 7.796875 -15.554688 7.796875 -13.265625 C 7.796875 -10.828125 8.457031 -8.921875 9.78125 -7.546875 C 11.101562 -6.179688 12.921875 -5.5 15.234375 -5.5 C 16.816406 -5.5 18.15625 -5.898438 19.25 -6.703125 C 20.34375 -7.515625 21.140625 -8.675781 21.640625 -10.1875 L 13.453125 -10.1875 L 13.453125 -14.9375 L 27.484375 -14.9375 L 27.484375 -8.9375 C 27.003906 -7.320312 26.191406 -5.820312 25.046875 -4.4375 C 23.910156 -3.0625 22.460938 -1.945312 20.703125 -1.09375 C 18.941406 -0.238281 16.953125 0.1875 14.734375 0.1875 C 12.128906 0.1875 9.800781 -0.382812 7.75 -1.53125 C 5.695312 -2.675781 4.097656 -4.265625 2.953125 -6.296875 C 1.816406 -8.328125 1.25 -10.648438 1.25 -13.265625 C 1.25 -15.878906 1.816406 -18.210938 2.953125 -20.265625 C 4.097656 -22.316406 5.6875 -23.910156 7.71875 -25.046875 C 9.757812 -26.191406 12.085938 -26.765625 14.703125 -26.765625 C 17.867188 -26.765625 20.539062 -26 22.71875 -24.46875 C 24.894531 -22.9375 26.332031 -20.8125 27.03125 -18.09375 Z M 19.90625 -18.09375 "/></g></g></g><g fill="#579728" fill-opacity="1"><g transform="translate(75.216835, 231.793521)"><g><path d="M 15.828125 0 L 10.328125 -9.984375 L 8.78125 -9.984375 L 8.78125 0 L 2.34375 0 L 2.34375 -26.46875 L 13.15625 -26.46875 C 15.238281 -26.46875 17.015625 -26.101562 18.484375 -25.375 C 19.960938 -24.644531 21.066406 -23.644531 21.796875 -22.375 C 22.523438 -21.101562 22.890625 -19.691406 22.890625 -18.140625 C 22.890625 -16.378906 22.390625 -14.804688 21.390625 -13.421875 C 20.398438 -12.035156 18.9375 -11.054688 17 -10.484375 L 23.109375 0 Z M 8.78125 -14.546875 L 12.78125 -14.546875 C 13.957031 -14.546875 14.84375 -14.832031 15.4375 -15.40625 C 16.03125 -15.988281 16.328125 -16.8125 16.328125 -17.875 C 16.328125 -18.875 16.03125 -19.660156 15.4375 -20.234375 C 14.84375 -20.816406 13.957031 -21.109375 12.78125 -21.109375 L 8.78125 -21.109375 Z M 8.78125 -14.546875 "/></g></g></g><g fill="#579728" fill-opacity="1"><g transform="translate(105.263957, 231.793521)"><g><path d="M 14.859375 0.265625 C 12.367188 0.265625 10.085938 -0.3125 8.015625 -1.46875 C 5.941406 -2.625 4.296875 -4.238281 3.078125 -6.3125 C 1.859375 -8.382812 1.25 -10.71875 1.25 -13.3125 C 1.25 -15.894531 1.859375 -18.21875 3.078125 -20.28125 C 4.296875 -22.34375 5.941406 -23.953125 8.015625 -25.109375 C 10.085938 -26.265625 12.367188 -26.84375 14.859375 -26.84375 C 17.347656 -26.84375 19.628906 -26.265625 21.703125 -25.109375 C 23.773438 -23.953125 25.40625 -22.34375 26.59375 -20.28125 C 27.789062 -18.21875 28.390625 -15.894531 28.390625 -13.3125 C 28.390625 -10.71875 27.785156 -8.382812 26.578125 -6.3125 C 25.367188 -4.238281 23.734375 -2.625 21.671875 -1.46875 C 19.617188 -0.3125 17.347656 0.265625 14.859375 0.265625 Z M 14.859375 -5.625 C 16.960938 -5.625 18.648438 -6.328125 19.921875 -7.734375 C 21.191406 -9.140625 21.828125 -11 21.828125 -13.3125 C 21.828125 -15.644531 21.191406 -17.507812 19.921875 -18.90625 C 18.648438 -20.300781 16.960938 -21 14.859375 -21 C 12.722656 -21 11.019531 -20.304688 9.75 -18.921875 C 8.476562 -17.546875 7.84375 -15.675781 7.84375 -13.3125 C 7.84375 -10.96875 8.476562 -9.097656 9.75 -7.703125 C 11.019531 -6.316406 12.722656 -5.625 14.859375 -5.625 Z M 14.859375 -5.625 "/></g></g></g><g fill="#579728" fill-opacity="1"><g transform="translate(140.362773, 231.793521)"><g><path d="M 38.765625 -26.46875 L 31.859375 0 L 24.046875 0 L 19.828125 -17.421875 L 15.453125 0 L 7.65625 0 L 0.9375 -26.46875 L 7.84375 -26.46875 L 11.65625 -7.203125 L 16.359375 -26.46875 L 23.453125 -26.46875 L 27.96875 -7.203125 L 31.828125 -26.46875 Z M 38.765625 -26.46875 "/></g></g></g><g fill="#579728" fill-opacity="1"><g transform="translate(185.48957, 231.793521)"><g><path d="M 18.546875 -15.90625 L 18.546875 -10.5625 L 1.953125 -10.5625 L 1.953125 -15.90625 Z M 18.546875 -15.90625 "/></g></g></g><g fill="#579728" fill-opacity="1"><g transform="translate(212.822363, 231.793521)"><g><path d="M 19.90625 -18.09375 C 19.425781 -18.976562 18.738281 -19.648438 17.84375 -20.109375 C 16.957031 -20.578125 15.910156 -20.8125 14.703125 -20.8125 C 12.617188 -20.8125 10.945312 -20.125 9.6875 -18.75 C 8.425781 -17.382812 7.796875 -15.554688 7.796875 -13.265625 C 7.796875 -10.828125 8.457031 -8.921875 9.78125 -7.546875 C 11.101562 -6.179688 12.921875 -5.5 15.234375 -5.5 C 16.816406 -5.5 18.15625 -5.898438 19.25 -6.703125 C 20.34375 -7.515625 21.140625 -8.675781 21.640625 -10.1875 L 13.453125 -10.1875 L 13.453125 -14.9375 L 27.484375 -14.9375 L 27.484375 -8.9375 C 27.003906 -7.320312 26.191406 -5.820312 25.046875 -4.4375 C 23.910156 -3.0625 22.460938 -1.945312 20.703125 -1.09375 C 18.941406 -0.238281 16.953125 0.1875 14.734375 0.1875 C 12.128906 0.1875 9.800781 -0.382812 7.75 -1.53125 C 5.695312 -2.675781 4.097656 -4.265625 2.953125 -6.296875 C 1.816406 -8.328125 1.25 -10.648438 1.25 -13.265625 C 1.25 -15.878906 1.816406 -18.210938 2.953125 -20.265625 C 4.097656 -22.316406 5.6875 -23.910156 7.71875 -25.046875 C 9.757812 -26.191406 12.085938 -26.765625 14.703125 -26.765625 C 17.867188 -26.765625 20.539062 -26 22.71875 -24.46875 C 24.894531 -22.9375 26.332031 -20.8125 27.03125 -18.09375 Z M 19.90625 -18.09375 "/></g></g></g><g fill="#579728" fill-opacity="1"><g transform="translate(247.016391, 231.793521)"><g><path d="M 15.828125 0 L 10.328125 -9.984375 L 8.78125 -9.984375 L 8.78125 0 L 2.34375 0 L 2.34375 -26.46875 L 13.15625 -26.46875 C 15.238281 -26.46875 17.015625 -26.101562 18.484375 -25.375 C 19.960938 -24.644531 21.066406 -23.644531 21.796875 -22.375 C 22.523438 -21.101562 22.890625 -19.691406 22.890625 -18.140625 C 22.890625 -16.378906 22.390625 -14.804688 21.390625 -13.421875 C 20.398438 -12.035156 18.9375 -11.054688 17 -10.484375 L 23.109375 0 Z M 8.78125 -14.546875 L 12.78125 -14.546875 C 13.957031 -14.546875 14.84375 -14.832031 15.4375 -15.40625 C 16.03125 -15.988281 16.328125 -16.8125 16.328125 -17.875 C 16.328125 -18.875 16.03125 -19.660156 15.4375 -20.234375 C 14.84375 -20.816406 13.957031 -21.109375 12.78125 -21.109375 L 8.78125 -21.109375 Z M 8.78125 -14.546875 "/></g></g></g><g fill="#579728" fill-opacity="1"><g transform="translate(277.063516, 231.793521)"><g><path d="M 8.671875 -26.46875 L 8.671875 -10.625 C 8.671875 -9.039062 9.0625 -7.820312 9.84375 -6.96875 C 10.625 -6.113281 11.765625 -5.6875 13.265625 -5.6875 C 14.773438 -5.6875 15.929688 -6.113281 16.734375 -6.96875 C 17.546875 -7.820312 17.953125 -9.039062 17.953125 -10.625 L 17.953125 -26.46875 L 24.390625 -26.46875 L 24.390625 -10.671875 C 24.390625 -8.304688 23.882812 -6.304688 22.875 -4.671875 C 21.875 -3.035156 20.523438 -1.800781 18.828125 -0.96875 C 17.128906 -0.144531 15.238281 0.265625 13.15625 0.265625 C 11.070312 0.265625 9.207031 -0.140625 7.5625 -0.953125 C 5.914062 -1.773438 4.613281 -3.007812 3.65625 -4.65625 C 2.695312 -6.300781 2.21875 -8.304688 2.21875 -10.671875 L 2.21875 -26.46875 Z M 8.671875 -26.46875 "/></g></g></g><g fill="#579728" fill-opacity="1"><g transform="translate(309.108687, 231.793521)"><g><path d="M 18.359375 -13.578125 C 19.890625 -13.242188 21.117188 -12.476562 22.046875 -11.28125 C 22.984375 -10.09375 23.453125 -8.734375 23.453125 -7.203125 C 23.453125 -4.992188 22.675781 -3.238281 21.125 -1.9375 C 19.582031 -0.644531 17.429688 0 14.671875 0 L 2.34375 0 L 2.34375 -26.46875 L 14.25 -26.46875 C 16.9375 -26.46875 19.039062 -25.847656 20.5625 -24.609375 C 22.082031 -23.378906 22.84375 -21.710938 22.84375 -19.609375 C 22.84375 -18.046875 22.429688 -16.75 21.609375 -15.71875 C 20.796875 -14.6875 19.710938 -13.972656 18.359375 -13.578125 Z M 8.78125 -15.765625 L 13 -15.765625 C 14.0625 -15.765625 14.875 -15.992188 15.4375 -16.453125 C 16 -16.921875 16.28125 -17.609375 16.28125 -18.515625 C 16.28125 -19.421875 16 -20.109375 15.4375 -20.578125 C 14.875 -21.054688 14.0625 -21.296875 13 -21.296875 L 8.78125 -21.296875 Z M 13.53125 -5.203125 C 14.613281 -5.203125 15.445312 -5.445312 16.03125 -5.9375 C 16.625 -6.425781 16.921875 -7.132812 16.921875 -8.0625 C 16.921875 -9 16.613281 -9.726562 16 -10.25 C 15.382812 -10.78125 14.535156 -11.046875 13.453125 -11.046875 L 8.78125 -11.046875 L 8.78125 -5.203125 Z M 13.53125 -5.203125 "/></g></g></g><g fill="#000000" fill-opacity="1"><g transform="translate(141.390732, 259.062503)"><g><path d="M 6.765625 -5.390625 C 6.765625 -4.929688 6.65625 -4.507812 6.4375 -4.125 C 6.226562 -3.75 5.90625 -3.441406 5.46875 -3.203125 C 5.03125 -2.972656 4.488281 -2.859375 3.84375 -2.859375 L 2.640625 -2.859375 L 2.640625 0 L 0.703125 0 L 0.703125 -7.953125 L 3.84375 -7.953125 C 4.476562 -7.953125 5.015625 -7.84375 5.453125 -7.625 C 5.890625 -7.40625 6.21875 -7.101562 6.4375 -6.71875 C 6.65625 -6.332031 6.765625 -5.890625 6.765625 -5.390625 Z M 3.6875 -4.390625 C 4.0625 -4.390625 4.335938 -4.476562 4.515625 -4.65625 C 4.703125 -4.832031 4.796875 -5.078125 4.796875 -5.390625 C 4.796875 -5.710938 4.703125 -5.957031 4.515625 -6.125 C 4.335938 -6.300781 4.0625 -6.390625 3.6875 -6.390625 L 2.640625 -6.390625 L 2.640625 -4.390625 Z M 3.6875 -4.390625 "/></g></g></g><g fill="#000000" fill-opacity="1"><g transform="translate(150.673906, 259.062503)"><g><path d="M 2.640625 -1.5 L 5.171875 -1.5 L 5.171875 0 L 0.703125 0 L 0.703125 -7.953125 L 2.640625 -7.953125 Z M 2.640625 -1.5 "/></g></g></g><g fill="#000000" fill-opacity="1"><g transform="translate(158.290898, 259.062503)"><g><path d="M 5.65625 -1.40625 L 2.6875 -1.40625 L 2.203125 0 L 0.1875 0 L 3.0625 -7.953125 L 5.296875 -7.953125 L 8.171875 0 L 6.125 0 Z M 5.15625 -2.90625 L 4.171875 -5.8125 L 3.1875 -2.90625 Z M 5.15625 -2.90625 "/></g></g></g><g fill="#000000" fill-opacity="1"><g transform="translate(168.854876, 259.062503)"><g><path d="M 7.8125 0 L 5.875 0 L 2.640625 -4.90625 L 2.640625 0 L 0.703125 0 L 0.703125 -7.953125 L 2.640625 -7.953125 L 5.875 -3.03125 L 5.875 -7.953125 L 7.8125 -7.953125 Z M 7.8125 0 "/></g></g></g><g fill="#000000" fill-opacity="1"><g transform="translate(179.588871, 259.062503)"><g><path d="M 6.421875 -7.953125 L 6.421875 -6.40625 L 4.3125 -6.40625 L 4.3125 0 L 2.375 0 L 2.375 -6.40625 L 0.265625 -6.40625 L 0.265625 -7.953125 Z M 6.421875 -7.953125 "/></g></g></g><g fill="#000000" fill-opacity="1"><g transform="translate(188.498003, 259.062503)"><g/></g></g><g fill="#000000" fill-opacity="1"><g transform="translate(193.111352, 259.062503)"><g><path d="M 0.375 -3.984375 C 0.375 -4.773438 0.539062 -5.476562 0.875 -6.09375 C 1.21875 -6.707031 1.691406 -7.1875 2.296875 -7.53125 C 2.910156 -7.875 3.601562 -8.046875 4.375 -8.046875 C 5.3125 -8.046875 6.117188 -7.796875 6.796875 -7.296875 C 7.472656 -6.796875 7.921875 -6.113281 8.140625 -5.25 L 6.015625 -5.25 C 5.859375 -5.582031 5.632812 -5.835938 5.34375 -6.015625 C 5.050781 -6.191406 4.71875 -6.28125 4.34375 -6.28125 C 3.75 -6.28125 3.265625 -6.070312 2.890625 -5.65625 C 2.523438 -5.238281 2.34375 -4.679688 2.34375 -3.984375 C 2.34375 -3.296875 2.523438 -2.742188 2.890625 -2.328125 C 3.265625 -1.910156 3.75 -1.703125 4.34375 -1.703125 C 4.71875 -1.703125 5.050781 -1.785156 5.34375 -1.953125 C 5.632812 -2.128906 5.859375 -2.382812 6.015625 -2.71875 L 8.140625 -2.71875 C 7.921875 -1.851562 7.472656 -1.171875 6.796875 -0.671875 C 6.117188 -0.179688 5.3125 0.0625 4.375 0.0625 C 3.601562 0.0625 2.910156 -0.109375 2.296875 -0.453125 C 1.691406 -0.796875 1.21875 -1.273438 0.875 -1.890625 C 0.539062 -2.503906 0.375 -3.203125 0.375 -3.984375 Z M 0.375 -3.984375 "/></g></g></g><g fill="#000000" fill-opacity="1"><g transform="translate(203.958694, 259.062503)"><g><path d="M 5.65625 -1.40625 L 2.6875 -1.40625 L 2.203125 0 L 0.1875 0 L 3.0625 -7.953125 L 5.296875 -7.953125 L 8.171875 0 L 6.125 0 Z M 5.15625 -2.90625 L 4.171875 -5.8125 L 3.1875 -2.90625 Z M 5.15625 -2.90625 "/></g></g></g><g fill="#000000" fill-opacity="1"><g transform="translate(214.522672, 259.062503)"><g><path d="M 4.765625 0 L 3.109375 -3 L 2.640625 -3 L 2.640625 0 L 0.703125 0 L 0.703125 -7.953125 L 3.953125 -7.953125 C 4.578125 -7.953125 5.109375 -7.84375 5.546875 -7.625 C 5.992188 -7.40625 6.328125 -7.101562 6.546875 -6.71875 C 6.765625 -6.34375 6.875 -5.921875 6.875 -5.453125 C 6.875 -4.921875 6.722656 -4.445312 6.421875 -4.03125 C 6.128906 -3.613281 5.691406 -3.320312 5.109375 -3.15625 L 6.9375 0 Z M 2.640625 -4.375 L 3.84375 -4.375 C 4.195312 -4.375 4.460938 -4.457031 4.640625 -4.625 C 4.816406 -4.800781 4.90625 -5.050781 4.90625 -5.375 C 4.90625 -5.675781 4.816406 -5.910156 4.640625 -6.078125 C 4.460938 -6.253906 4.195312 -6.34375 3.84375 -6.34375 L 2.640625 -6.34375 Z M 2.640625 -4.375 "/></g></g></g><g fill="#000000" fill-opacity="1"><g transform="translate(224.123218, 259.062503)"><g><path d="M 2.640625 -6.40625 L 2.640625 -4.796875 L 5.234375 -4.796875 L 5.234375 -3.296875 L 2.640625 -3.296875 L 2.640625 -1.546875 L 5.578125 -1.546875 L 5.578125 0 L 0.703125 0 L 0.703125 -7.953125 L 5.578125 -7.953125 L 5.578125 -6.40625 Z M 2.640625 -6.40625 "/></g></g></g></svg>